<!-- Created with Inkscape (http://www.inkscape.org/) -->
<svg id="svg2" xmlns:rdf="http://www.w3.org/1999/02/22-rdf-syntax-ns#" xmlns="http://www.w3.org/2000/svg" overflow="hidden" viewBox="0 0 320 176" height="100%" width="100%" version="1.1" xmlns:cc="http://creativecommons.org/ns#" xmlns:dc="http://purl.org/dc/elements/1.1/">
 <metadata id="metadata7">
  <rdf:RDF>
   <cc:Work rdf:about="">
    <dc:format>image/svg+xml</dc:format>
    <dc:type rdf:resource="http://purl.org/dc/dcmitype/StillImage"/>
    <dc:title/>
   </cc:Work>
  </rdf:RDF>
 </metadata>
 <defs id="defs2987">
  <clipPath id="clip-to-viewport">
   <rect id="rect3030" width="100%" fill="none" height="100%"/>
  </clipPath>
  <style id="style4610">svg {
	 }
	 .btn.on {
		fill: #333;
		stroke: #111;
	 }</style>
 </defs>
 <g id="g3034" clip-path="url(#clip-to-viewport)">
  <g id="g3036" transform="translate(160, -48)">
   <path id="path2987" d="m0,80c-53.019,0-96,42.981-96,96s42.981,96,96,96,96-42.981,96-96c0-53.02-42.981-96-96-96zm0,24c34.527,0,63.342,24.318,70.344,56.75-5.8497,2.5974-26.308,10.655-40.625,3.375-4.72-11.79-16.24-20.12-29.72-20.12-13.477,0-25.003,8.3317-29.719,20.125-14.317,7.2802-34.775-0.77755-40.625-3.375,7.003-32.42,35.815-56.74,70.345-56.74zm-44.219,80.906c5.0151-0.0772,10.054,0.70786,14.5,2.9688,3.2476,8.1214,9.7223,14.596,17.844,17.844,7.2801,14.317-0.77757,34.775-3.375,40.625-27.512-5.9393-49.154-27.582-55.094-55.094,4.0331-1.7908,14.991-6.1725,26.125-6.3438zm86.438,0c11.792-0.38037,23.85,4.4458,28.125,6.3438-5.9393,27.512-27.582,49.154-55.094,55.094-2.5974-5.8498-10.655-26.308-3.375-40.625,8.1214-3.2476,14.596-9.7223,17.844-17.844,3.8554-1.9604,8.1546-2.8286,12.5-2.9688z" fill="#ff0000" data-center-x="0" data-center-y="176" class="wheel orientation"/>
  </g>
 </g>
 <path class="btn touch" data-button="a" id="path3043" d="m72,44a28,28,0,1,1,-56,0,28,28,0,1,1,56,0z" transform="matrix(1.1428571,0,0,1.1428571,-2.2857136,37.714286)" fill="#800000"/>
 <path class="btn touch" data-button="b" id="path3813" d="m72,44a28,28,0,1,1,-56,0,28,28,0,1,1,56,0z" transform="matrix(1.1428571,0,0,1.1428571,221.71429,37.714289)" fill="#800000"/>
</svg>
