<?xml version="1.0" encoding="UTF-8" standalone="no"?>
<!-- Created with Inkscape (http://www.inkscape.org/) -->

<svg
   xmlns:dc="http://purl.org/dc/elements/1.1/"
   xmlns:cc="http://creativecommons.org/ns#"
   xmlns:rdf="http://www.w3.org/1999/02/22-rdf-syntax-ns#"
   xmlns:svg="http://www.w3.org/2000/svg"
   xmlns="http://www.w3.org/2000/svg"
   xmlns:sodipodi="http://sodipodi.sourceforge.net/DTD/sodipodi-0.dtd"
   xmlns:inkscape="http://www.inkscape.org/namespaces/inkscape"
   id="svg2"
   viewBox="0 0 320 176"
   version="1.1"
   overflow="hidden"
   width="320"
   height="176"
   inkscape:version="0.48.4 r9939"
   sodipodi:docname="wheel.svg">
  <sodipodi:namedview
     pagecolor="#ffffff"
     bordercolor="#666666"
     borderopacity="1"
     objecttolerance="10"
     gridtolerance="10"
     guidetolerance="10"
     inkscape:pageopacity="0"
     inkscape:pageshadow="2"
     inkscape:window-width="640"
     inkscape:window-height="480"
     id="namedview3926"
     showgrid="true">
    <inkscape:grid
       type="xygrid"
       id="grid3928"
       empspacing="5"
       visible="true"
       enabled="true"
       snapvisiblegridlinesonly="true" />
  </sodipodi:namedview>
  <metadata
     id="metadata7">
    <rdf:RDF>
      <cc:Work
         rdf:about="">
        <dc:format>image/svg+xml</dc:format>
        <dc:type
           rdf:resource="http://purl.org/dc/dcmitype/StillImage" />
        <dc:title />
      </cc:Work>
    </rdf:RDF>
  </metadata>
  <defs
     id="defs3921">
    <clipPath
       id="clip-to-viewport">
      <rect
         id="viewport"
         width="100%"
         height="100%"
         fill="none" />
    </clipPath>
  </defs>
  <path
     id="path2987"
     fill="#ff0000"
     d="m160,56c-53.019,0-96,42.981-96,96s42.981,96,96,96,96-42.981,96-96-42.981-96-96-96zm0,24c34.527,0,63.342,24.318,70.344,56.75-5.8497,2.5974-26.308,10.655-40.625,3.375-4.72-11.79-16.24-20.12-29.72-20.12-13.477,0-25.003,8.3317-29.719,20.125-14.317,7.2802-34.775-0.77755-40.625-3.375,7.003-32.42,35.815-56.74,70.345-56.74zm-44.219,80.906c5.0151-0.0772,10.054,0.70786,14.5,2.9688,3.2476,8.1214,9.7223,14.596,17.844,17.844,7.2801,14.317-0.77757,34.775-3.375,40.625-27.512-5.9393-49.154-27.582-55.094-55.094,4.0331-1.7908,14.991-6.1725,26.125-6.3438zm86.438,0c11.792-0.38037,23.85,4.4458,28.125,6.3438-5.9393,27.512-27.582,49.154-55.094,55.094-2.5974-5.8498-10.655-26.308-3.375-40.625,8.1214-3.2476,14.596-9.7223,17.844-17.844,3.8554-1.9604,8.1546-2.8286,12.5-2.9688z" />
  <path
     sodipodi:type="arc"
     style="fill:#ff0000;fill-opacity:1;stroke:none"
     id="path3932"
     sodipodi:cx="-75"
     sodipodi:cy="18.5"
     sodipodi:rx="80"
     sodipodi:ry="12.5"
     d="m 5,18.5 a 80,12.5 0 1 1 -160,0 80,12.5 0 1 1 160,0 z" />
  <path
     sodipodi:type="arc"
     style="fill:#ff0000;fill-opacity:1;stroke:none"
     id="path3934"
     sodipodi:cx="0"
     sodipodi:cy="0"
     sodipodi:rx="0"
     sodipodi:ry="0"
     d="M 0,0 A 0,0 0 1 1 0,0 0,0 0 1 1 0,0 z" />
</svg>
